<svg 
 xmlns="http://www.w3.org/2000/svg"
 xmlns:xlink="http://www.w3.org/1999/xlink"
 width="20px" height="20px">
<path fill-rule="evenodd"  opacity="0.702" fill="rgb(227, 80, 40)"
 d="M12.828,9.999 L18.485,15.656 C19.266,16.437 19.266,17.704 18.485,18.485 C17.704,19.266 16.438,19.266 15.657,18.485 L10.000,12.828 L4.343,18.485 C3.562,19.266 2.296,19.266 1.515,18.485 C0.734,17.704 0.734,16.437 1.515,15.656 L7.172,9.999 L1.515,4.342 C0.734,3.562 0.734,2.295 1.515,1.514 C2.296,0.733 3.562,0.733 4.343,1.514 L10.000,7.171 L15.657,1.514 C16.438,0.733 17.704,0.733 18.485,1.514 C19.266,2.295 19.266,3.562 18.485,4.342 L12.828,9.999 Z"/>
</svg>